<?xml version="1.0" ?><!DOCTYPE svg  PUBLIC '-//W3C//DTD SVG 1.1//EN'  'http://www.w3.org/Graphics/SVG/1.1/DTD/svg11.dtd'><svg height="256px" style="shape-rendering:geometricPrecision; text-rendering:geometricPrecision; image-rendering:optimizeQuality; fill-rule:evenodd; clip-rule:evenodd" version="1.1" viewBox="0 0 255999 255998" width="256px" xml:space="preserve" xmlns="http://www.w3.org/2000/svg" xmlns:xlink="http://www.w3.org/1999/xlink"><defs><style type="text/css">
   <![CDATA[
    .fil1 {fill:none}
    .fil0 {fill:#3F51B5;fill-rule:nonzero}
   ]]>
  </style></defs><g id="Layer_x0020_1"><g id="_394357688"><path class="fil0" d="M189716 154668l-16399 -51789 -1 0c-454,-1436 342,-2969 1778,-3424 294,-93 592,-133 883,-127l13283 0c1292,0 2374,899 2656,2104l6959 24338 6416 -24406 -6 -1c325,-1237 1449,-2052 2673,-2035l13208 0c1309,0 2402,922 2667,2152l6172 24251 7129 -24432 2612 757 -2620 -764c352,-1205 1462,-1983 2660,-1964l13486 0c1506,0 2727,1221 2727,2728 0,369 -73,721 -206,1041l-16594 51676 -2589 -831 2597 835c-377,1172 -1474,1914 -2647,1893l-13143 0c-1316,0 -2413,-931 -2670,-2170l-6248 -23324 -6179 23459 -2632 -693 2638 695c-327,1240 -1457,2055 -2686,2033l-13295 0c-1254,0 -2312,-848 -2629,-2002z"/><path class="fil0" d="M103121 154668l-16397 -51789 -2 0c-455,-1436 341,-2969 1777,-3424 295,-93 592,-133 884,-127l13283 0c1292,0 2375,899 2657,2104l6958 24338 6416 -24406 -6 -1c326,-1237 1450,-2052 2674,-2035l13207 0c1308,0 2402,922 2667,2152l6172 24251 7130 -24432 2610 757 -2618 -764c351,-1205 1462,-1983 2660,-1964l13484 0c1507,0 2729,1221 2729,2728 0,369 -74,721 -207,1041l-16593 51676 -2590 -831 2597 835c-377,1172 -1474,1914 -2647,1893l-13143 0c-1315,0 -2413,-931 -2671,-2170l-6248 -23324 -6178 23459 -2631 -693 2637 695c-326,1240 -1458,2055 -2685,2033l-13295 0c-1256,0 -2313,-848 -2631,-2002z"/><path class="fil0" d="M16527 154668l-16397 -51789 -1 0c-455,-1436 341,-2969 1777,-3424 293,-93 592,-133 884,-127l13282 0c1292,0 2374,899 2657,2104l6959 24338 6415 -24406 -6 -1c325,-1237 1450,-2052 2673,-2035l13207 0c1309,0 2403,922 2667,2152l6174 24251 7129 -24432 2610 757 -2618 -764c352,-1205 1462,-1983 2659,-1964l13485 0c1507,0 2728,1221 2728,2728 0,369 -73,721 -205,1041l-16595 51676 -2590 -831 2599 835c-378,1172 -1476,1914 -2647,1893l-13143 0c-1316,0 -2413,-931 -2672,-2170l-6247 -23324 -6178 23459 -2633 -693 2639 695c-327,1240 -1458,2055 -2686,2033l-13296 0c-1254,0 -2311,-848 -2630,-2002z"/></g></g><rect class="fil1" height="255998" width="255998" x="1"/></svg>